<svg width="267" height="84" viewBox="0 0 267 84" fill="none" xmlns="http://www.w3.org/2000/svg">
<path d="M34.508 12.602C33.992 14.0353 33.2467 15.268 32.272 16.3C31.2973 17.2747 29.8353 17.762 27.886 17.762C26.9687 17.762 26.1373 17.59 25.392 17.246C24.6467 16.8447 24.0447 16.1853 23.586 15.268C23.242 14.6373 23.07 13.9493 23.07 13.204C23.07 12.2867 23.2993 11.4553 23.758 10.71C24.274 9.96467 24.9907 9.56333 25.908 9.506C26.0227 9.506 26.1373 9.506 26.252 9.506C26.424 9.44866 26.5387 9.42 26.596 9.42C27.5133 9.42 28.23 9.764 28.746 10.452C28.918 10.6813 29.004 10.9107 29.004 11.14C29.004 11.5413 28.7747 11.9713 28.316 12.43C27.9147 12.8313 27.5133 13.2613 27.112 13.72C26.768 14.1787 26.682 14.6947 26.854 15.268C27.198 16.3 27.8287 16.816 28.746 16.816C29.606 16.816 30.5233 16.3573 31.498 15.44C32.53 14.4653 33.3327 13.118 33.906 11.398C34.078 11.054 34.164 10.6527 34.164 10.194C34.164 9.334 33.82 8.44533 33.132 7.528C32.444 6.61066 31.5553 5.95133 30.466 5.55C30.0073 5.378 29.4913 5.23466 28.918 5.12C28.402 5.00533 27.886 4.948 27.37 4.948C25.306 4.948 23.2707 5.55 21.264 6.754C19.2573 7.958 17.8813 9.62066 17.136 11.742C16.8493 12.4873 16.6487 13.204 16.534 13.892C16.4193 14.58 16.362 15.2107 16.362 15.784C16.362 17.4467 16.792 18.8513 17.652 19.998C18.512 21.1447 19.6013 22.1767 20.92 23.094C22.296 24.0113 23.7293 24.9573 25.22 25.932C26.7107 26.8493 28.1153 27.91 29.434 29.114C30.81 30.318 31.928 31.78 32.788 33.5C33.648 35.22 34.078 37.3413 34.078 39.864C34.078 41.2973 33.906 42.9027 33.562 44.68C33.218 46.4573 32.6447 48.4353 31.842 50.614C30.8673 53.2513 29.4053 55.6307 27.456 57.752C25.564 59.9307 23.3567 61.6507 20.834 62.912C18.3687 64.1733 15.76 64.804 13.008 64.804C11.116 64.804 9.224 64.46 7.332 63.772C4.52267 62.74 2.63067 61.4213 1.656 59.816C0.624 58.268 0.108 56.6913 0.108 55.086C0.108 53.9967 0.251333 52.9647 0.538 51.99C0.824667 51.0153 1.08267 50.1553 1.312 49.41C1.71333 48.2633 2.516 47.088 3.72 45.884C4.98133 44.68 6.386 43.6767 7.934 42.874C9.482 42.014 10.9153 41.584 12.234 41.584C12.8073 41.584 13.352 41.67 13.868 41.842C14.9573 42.1287 15.502 43.2753 15.502 45.282C15.502 45.8553 15.4447 46.4287 15.33 47.002C15.2153 47.5753 15.0433 48.1773 14.814 48.808C14.4127 49.8973 13.8107 50.786 13.008 51.474C12.2627 52.162 11.2593 52.506 9.998 52.506C9.36733 52.506 8.76533 52.4773 8.192 52.42C7.676 52.3053 7.27467 52.0187 6.988 51.56C6.93067 51.4453 6.87333 51.3307 6.816 51.216C6.816 51.1013 6.816 50.9867 6.816 50.872C6.816 49.9547 7.27467 49.1807 8.192 48.55C8.65067 48.206 9.08067 48.206 9.482 48.55C9.88333 48.894 10.2847 49.2667 10.686 49.668C11.1447 50.012 11.632 50.1267 12.148 50.012C13.0653 49.7827 13.6673 49.2667 13.954 48.464C14.2407 47.6613 14.384 46.7727 14.384 45.798C14.384 45.5113 14.384 45.2247 14.384 44.938C14.384 44.6513 14.3553 44.3647 14.298 44.078C14.2407 43.1033 13.7533 42.616 12.836 42.616C12.148 42.616 11.288 42.9027 10.256 43.476C9.28133 44.0493 8.278 44.766 7.246 45.626C6.27133 46.4287 5.41133 47.26 4.666 48.12C3.92067 48.9227 3.462 49.5533 3.29 50.012C2.774 51.4453 2.516 52.7927 2.516 54.054C2.516 57.0927 4.12133 59.214 7.332 60.418C7.676 60.5327 8.07733 60.59 8.536 60.59C9.68267 60.59 11.2307 60.332 13.18 59.816C15.1867 59.3 17.308 58.4687 19.544 57.322C21.78 56.1753 23.8727 54.6273 25.822 52.678C27.7713 50.7287 29.262 48.3207 30.294 45.454C30.81 44.078 31.1827 42.8167 31.412 41.67C31.6413 40.5233 31.756 39.4627 31.756 38.488C31.756 36.3093 31.2687 34.5033 30.294 33.07C29.3767 31.5793 28.144 30.3467 26.596 29.372C25.1053 28.3973 23.5287 27.5087 21.866 26.706C20.2033 25.9033 18.598 25.072 17.05 24.212C15.5593 23.2947 14.3267 22.234 13.352 21.03C12.4347 19.7687 11.976 18.192 11.976 16.3C11.976 15.612 12.0333 14.8667 12.148 14.064C12.32 13.204 12.578 12.3153 12.922 11.398C14.0687 8.18733 15.7313 5.894 17.91 4.518C20.146 3.142 22.4967 2.454 24.962 2.454C25.994 2.454 27.026 2.56867 28.058 2.798C29.09 2.97 30.0933 3.228 31.068 3.572C32.7307 4.14533 33.8487 4.862 34.422 5.722C35.0527 6.582 35.368 7.528 35.368 8.56C35.368 9.19066 35.282 9.85 35.11 10.538C34.9953 11.1687 34.7947 11.8567 34.508 12.602ZM69.0995 35.478C69.3288 35.9367 69.4435 36.51 69.4435 37.198C69.4435 37.5993 69.3575 37.9147 69.1855 38.144C69.0708 38.3733 68.7842 38.316 68.3255 37.972C68.0388 37.6853 67.7808 37.542 67.5515 37.542C67.1502 37.542 66.7775 37.7713 66.4335 38.23C66.0322 38.8033 65.4588 39.8927 64.7135 41.498C64.0255 43.046 63.1942 44.7947 62.2195 46.744C61.3022 48.6933 60.2415 50.5853 59.0375 52.42C57.8335 54.1973 56.5148 55.688 55.0815 56.892C53.7055 58.096 52.2148 58.698 50.6095 58.698C49.4055 58.698 48.5455 58.2967 48.0295 57.494C47.5708 56.6913 47.2842 55.774 47.1695 54.742C47.1122 53.71 47.0262 52.8787 46.9115 52.248C45.8795 53.0507 45.0768 53.624 44.5035 53.968C43.9302 54.2547 43.3855 54.398 42.8695 54.398C42.6402 54.398 42.3822 54.3693 42.0955 54.312C41.8088 54.1973 41.4648 54.1113 41.0635 54.054C40.2035 53.8247 39.6302 52.9933 39.3435 51.56C39.0568 50.0693 38.9135 48.6933 38.9135 47.432C38.9135 46.3427 39.0568 45.196 39.3435 43.992C39.6875 42.788 40.0028 41.6413 40.2895 40.552C40.5762 39.4627 40.7195 38.6027 40.7195 37.972C40.7195 37.6853 40.2895 37.3987 39.4295 37.112C38.5695 36.768 37.8815 36.338 37.3655 35.822C37.3082 35.7647 37.2795 35.5927 37.2795 35.306C37.2795 34.962 37.3368 34.618 37.4515 34.274C37.6235 33.8727 37.7955 33.7867 37.9675 34.016C38.4835 34.5893 39.0855 35.0767 39.7735 35.478C40.4615 35.822 40.8342 35.9653 40.8915 35.908C41.9235 35.6213 42.5542 34.9907 42.7835 34.016C43.0702 33.0413 43.5862 32.124 44.3315 31.264C44.9622 30.576 45.5068 30.232 45.9655 30.232C46.7108 30.232 47.2268 30.662 47.5135 31.522C47.5708 31.694 47.6568 31.8947 47.7715 32.124C47.8862 32.3533 47.9435 32.64 47.9435 32.984C47.9435 33.5 47.8002 34.016 47.5135 34.532C47.1122 35.2773 46.7108 35.9367 46.3095 36.51C45.9082 37.026 45.0482 37.5133 43.7295 37.972C43.4428 38.2587 43.0415 39.176 42.5255 40.724C42.0095 42.2147 41.7515 44.0493 41.7515 46.228C41.7515 47.3747 41.9522 48.4067 42.3535 49.324C42.8122 50.2413 43.5575 50.7573 44.5895 50.872C46.5388 49.668 47.8288 48.292 48.4595 46.744C49.1475 45.196 49.8642 43.4187 50.6095 41.412C51.5842 38.7747 53.3042 36.2233 55.7695 33.758C56.1135 33.586 56.4002 33.5 56.6295 33.5C57.2028 33.5 57.4895 33.9587 57.4895 34.876C57.4895 35.1053 57.4608 35.3633 57.4035 35.65C57.3462 35.9367 57.2888 36.2233 57.2315 36.51C56.5435 39.09 55.5975 41.24 54.3935 42.96C53.3615 44.3933 52.4442 45.6833 51.6415 46.83C50.8388 47.9193 50.1222 49.1233 49.4915 50.442C49.4915 51.0727 49.6922 51.9327 50.0935 53.022C50.4948 54.054 51.2402 54.57 52.3295 54.57C52.7308 54.57 53.1322 54.484 53.5335 54.312C54.5655 53.8533 55.7122 53.022 56.9735 51.818C58.2348 50.5567 59.5822 48.6073 61.0155 45.97C61.5888 44.938 62.1622 43.7627 62.7355 42.444C63.3662 41.1253 63.9108 39.8927 64.3695 38.746C64.8282 37.542 65.1148 36.7107 65.2295 36.252C65.5735 34.8187 66.2042 34.102 67.1215 34.102C67.7522 34.102 68.4115 34.5607 69.0995 35.478ZM45.2775 34.532C45.2775 34.188 45.1915 33.93 45.0195 33.758H44.9335C44.7615 33.758 44.5895 33.8727 44.4175 34.102C44.3028 34.274 44.2168 34.4747 44.1595 34.704C43.9875 34.9907 44.0162 35.2487 44.2455 35.478C44.3028 35.5353 44.3888 35.564 44.5035 35.564C44.9048 35.564 45.1628 35.22 45.2775 34.532ZM89.0817 44.508C88.3364 45.7693 87.3904 47.1453 86.2437 48.636C85.0971 50.0693 83.8931 51.302 82.6317 52.334C81.4277 53.366 80.2811 53.882 79.1917 53.882C77.4144 53.882 76.0097 53.796 74.9777 53.624C74.0031 53.3947 73.2004 53.0793 72.5697 52.678C71.4804 51.9327 70.5917 50.958 69.9037 49.754C69.2157 48.55 68.8144 47.3173 68.6997 46.056C68.6424 45.712 68.6137 45.368 68.6137 45.024C68.6137 44.68 68.6137 44.3647 68.6137 44.078C68.6137 40.6953 69.2731 37.714 70.5917 35.134C71.9104 32.554 73.7737 31.006 76.1817 30.49C76.9271 30.3753 77.5004 30.6907 77.9017 31.436C78.3031 32.124 78.5037 33.07 78.5037 34.274C78.5037 36.1087 78.0164 38.0867 77.0417 40.208C76.6404 41.068 76.2104 41.8993 75.7517 42.702C75.3504 43.4473 75.0064 44.0493 74.7197 44.508C73.9744 45.5973 73.4011 46.3427 72.9997 46.744C72.6557 47.088 72.4837 47.432 72.4837 47.776C72.4837 48.6933 73.0571 49.582 74.2037 50.442C75.3504 51.302 77.1277 51.732 79.5357 51.732C80.4531 51.732 81.3991 51.3307 82.3737 50.528C83.3484 49.7253 84.2944 48.722 85.2117 47.518C86.1864 46.314 87.0464 45.11 87.7917 43.906C88.1357 43.3327 88.4511 43.046 88.7377 43.046C89.0817 43.046 89.2537 43.304 89.2537 43.82C89.2537 44.0493 89.1964 44.2787 89.0817 44.508ZM76.1817 33.672C75.9524 33.328 75.4651 33.414 74.7197 33.93C74.0317 34.3887 73.4011 35.478 72.8277 37.198C72.4264 38.4593 72.2257 39.9213 72.2257 41.584C72.2257 42.0427 72.2257 42.5013 72.2257 42.96C72.2831 43.4187 72.3404 43.8773 72.3977 44.336C73.3724 42.6733 74.0604 41.4407 74.4617 40.638C74.9204 39.778 75.2644 38.8893 75.4937 37.972C75.6084 37.5133 75.7804 36.94 76.0097 36.252C76.2964 35.564 76.4397 34.962 76.4397 34.446C76.4397 34.102 76.3537 33.844 76.1817 33.672ZM104.703 44.508C103.957 45.7693 103.011 47.1453 101.865 48.636C100.718 50.0693 99.5141 51.302 98.2528 52.334C97.0488 53.366 95.9021 53.882 94.8128 53.882C93.0355 53.882 91.6308 53.796 90.5988 53.624C89.6241 53.3947 88.8215 53.0793 88.1908 52.678C87.1015 51.9327 86.2128 50.958 85.5248 49.754C84.8368 48.55 84.4355 47.3173 84.3208 46.056C84.2635 45.712 84.2348 45.368 84.2348 45.024C84.2348 44.68 84.2348 44.3647 84.2348 44.078C84.2348 40.6953 84.8941 37.714 86.2128 35.134C87.5315 32.554 89.3948 31.006 91.8028 30.49C92.5481 30.3753 93.1215 30.6907 93.5228 31.436C93.9241 32.124 94.1248 33.07 94.1248 34.274C94.1248 36.1087 93.6375 38.0867 92.6628 40.208C92.2615 41.068 91.8315 41.8993 91.3728 42.702C90.9715 43.4473 90.6275 44.0493 90.3408 44.508C89.5955 45.5973 89.0221 46.3427 88.6208 46.744C88.2768 47.088 88.1048 47.432 88.1048 47.776C88.1048 48.6933 88.6781 49.582 89.8248 50.442C90.9715 51.302 92.7488 51.732 95.1568 51.732C96.0741 51.732 97.0201 51.3307 97.9948 50.528C98.9695 49.7253 99.9155 48.722 100.833 47.518C101.807 46.314 102.667 45.11 103.413 43.906C103.757 43.3327 104.072 43.046 104.359 43.046C104.703 43.046 104.875 43.304 104.875 43.82C104.875 44.0493 104.817 44.2787 104.703 44.508ZM91.8028 33.672C91.5735 33.328 91.0861 33.414 90.3408 33.93C89.6528 34.3887 89.0221 35.478 88.4488 37.198C88.0475 38.4593 87.8468 39.9213 87.8468 41.584C87.8468 42.0427 87.8468 42.5013 87.8468 42.96C87.9041 43.4187 87.9615 43.8773 88.0188 44.336C88.9935 42.6733 89.6815 41.4407 90.0828 40.638C90.5415 39.778 90.8855 38.8893 91.1148 37.972C91.2295 37.5133 91.4015 36.94 91.6308 36.252C91.9175 35.564 92.0608 34.962 92.0608 34.446C92.0608 34.102 91.9748 33.844 91.8028 33.672ZM116.282 25.588C116.11 26.0467 115.909 26.534 115.68 27.05C115.508 27.566 115.336 28.0533 115.164 28.512L115.766 28.598C116.11 28.6553 116.425 28.7127 116.712 28.77C117.056 28.77 117.371 28.77 117.658 28.77C118.117 28.77 118.518 28.7413 118.862 28.684C119.206 28.5693 119.464 28.4833 119.636 28.426C120.095 28.3113 120.381 28.168 120.496 27.996C120.611 27.824 120.668 27.738 120.668 27.738C120.668 27.5087 120.754 27.2793 120.926 27.05C121.098 26.7633 121.299 26.62 121.528 26.62C121.815 26.62 122.044 26.878 122.216 27.394C122.216 27.394 122.187 27.6807 122.13 28.254C122.13 28.8273 121.413 29.4007 119.98 29.974C119.005 30.3753 117.343 30.6333 114.992 30.748H114.132C113.788 31.5507 113.415 32.3533 113.014 33.156C112.67 33.9013 112.297 34.6467 111.896 35.392C110.692 37.6853 109.66 39.3767 108.8 40.466C107.997 41.5553 107.367 42.3867 106.908 42.96C106.449 43.476 106.134 44.1067 105.962 44.852C105.905 45.196 105.847 45.5113 105.79 45.798C105.79 46.0847 105.79 46.3713 105.79 46.658C105.79 48.7793 106.392 50.3273 107.596 51.302C108.857 52.2767 110.061 52.764 111.208 52.764C112.527 52.764 113.845 52.3053 115.164 51.388C116.483 50.4133 117.572 49.5247 118.432 48.722C119.12 48.1487 119.636 47.862 119.98 47.862C120.209 47.862 120.324 47.9767 120.324 48.206C120.324 48.6073 120.009 49.238 119.378 50.098C119.034 50.5567 118.461 51.1873 117.658 51.99C116.855 52.7927 115.852 53.538 114.648 54.226C113.444 54.8567 112.097 55.172 110.606 55.172C107.625 55.172 105.618 54.484 104.586 53.108C103.611 51.732 103.124 49.4387 103.124 46.228C103.124 44.2213 103.267 41.8707 103.554 39.176C103.898 36.424 104.385 33.4713 105.016 30.318L103.554 30.232C102.809 30.232 102.235 30.3467 101.834 30.576C101.49 30.748 101.203 30.834 100.974 30.834C100.401 30.834 100.114 30.404 100.114 29.544C100.114 28.5693 100.372 27.824 100.888 27.308C101.289 26.9067 101.977 26.706 102.952 26.706C103.411 26.706 103.869 26.7633 104.328 26.878C104.787 26.9353 105.274 27.0213 105.79 27.136L106.306 25.158L107.682 20.17C107.797 19.5967 107.911 19.138 108.026 18.794C108.141 18.45 108.284 18.02 108.456 17.504C109.431 14.58 110.491 11.7707 111.638 9.076C112.785 6.38133 114.447 3.97333 116.626 1.852C117.027 1.22133 117.572 0.905999 118.26 0.905999C118.776 0.905999 119.235 1.13533 119.636 1.594C120.037 1.99533 120.209 2.48266 120.152 3.056C120.152 3.056 120.123 3.77266 120.066 5.206C120.009 6.63933 119.894 8.388 119.722 10.452C119.55 12.4587 119.292 14.3793 118.948 16.214C118.776 17.3033 118.518 18.4787 118.174 19.74C117.887 20.944 117.515 22.1767 117.056 23.438L116.282 25.588ZM109.316 27.652C109.717 27.7667 110.09 27.8527 110.434 27.91C110.835 27.9673 111.265 28.0533 111.724 28.168L112.498 28.254C112.727 27.8527 112.928 27.4227 113.1 26.964C113.272 26.448 113.444 25.9893 113.616 25.588L114.562 23.266C114.791 22.6353 114.992 22.0907 115.164 21.632C115.336 21.116 115.508 20.6573 115.68 20.256C116.311 18.1347 116.827 15.956 117.228 13.72C117.629 11.484 117.83 9.73533 117.83 8.474C117.83 7.442 117.687 6.84 117.4 6.668C117.056 6.61066 116.511 7.27 115.766 8.646C115.021 10.022 114.218 11.828 113.358 14.064C112.498 16.3 111.667 18.6793 110.864 21.202C110.807 21.4313 110.749 21.6607 110.692 21.89C110.635 22.062 110.577 22.2627 110.52 22.492L109.832 25.502L109.316 27.652ZM107.166 39.176C107.797 38.3733 108.485 37.2267 109.23 35.736C109.975 34.188 110.721 32.5253 111.466 30.748H110.778C110.434 30.748 110.061 30.748 109.66 30.748C109.316 30.748 109.001 30.7193 108.714 30.662C108.37 32.1527 108.055 33.6433 107.768 35.134C107.539 36.6247 107.338 37.972 107.166 39.176ZM138.37 49.152C137.625 49.8973 136.966 50.6427 136.392 51.388C135.819 52.1333 134.558 52.9933 132.608 53.968C132.379 54.312 131.863 54.828 131.06 55.516C130.315 56.204 128.824 56.6053 126.588 56.72C125.098 56.7773 123.894 56.4047 122.976 55.602C122.116 54.8567 121.457 53.9393 120.998 52.85C120.54 51.7607 120.138 50.7573 119.794 49.84C119.737 49.8973 119.479 50.1267 119.02 50.528C118.562 50.9293 118.103 51.3307 117.644 51.732C117.128 52.1333 116.813 52.3913 116.698 52.506C116.641 52.5633 116.526 52.592 116.354 52.592C116.068 52.592 115.838 52.4487 115.666 52.162C115.437 51.818 115.437 51.5313 115.666 51.302C116.756 50.2127 117.587 49.3813 118.16 48.808C118.734 48.1773 119.25 47.5753 119.708 47.002C120.167 46.4287 120.712 45.712 121.342 44.852C122.317 43.3613 123.349 42.0427 124.438 40.896C125.585 39.692 126.302 38.8033 126.588 38.23C126.646 38.1727 126.674 38.058 126.674 37.886C126.674 37.714 126.588 37.5707 126.416 37.456C126.302 37.3413 126.216 37.198 126.158 37.026C125.929 36.1087 125.814 35.2487 125.814 34.446C125.814 33.1847 126.302 31.694 127.276 29.974C127.678 29.6873 128.222 29.458 128.91 29.286C129.598 29.0567 130.143 29.028 130.544 29.2C131.003 29.4293 131.29 29.6873 131.404 29.974C131.576 30.2607 131.72 30.6333 131.834 31.092C131.834 31.1493 131.834 31.2067 131.834 31.264C131.892 31.3213 131.92 31.4073 131.92 31.522C131.92 31.866 131.863 32.2387 131.748 32.64C131.634 33.0413 131.49 33.4713 131.318 33.93C131.318 34.1593 131.032 34.5893 130.458 35.22C129.942 35.8507 129.77 36.252 129.942 36.424C130.286 37.1693 130.86 38.144 131.662 39.348C132.637 40.724 133.296 41.9853 133.64 43.132C134.042 44.2787 134.242 45.3107 134.242 46.228C134.242 47.3173 134.07 48.2633 133.726 49.066C133.44 49.8687 133.21 50.5567 133.038 51.13C133.554 51.1873 134.156 50.9293 134.844 50.356C135.532 49.7253 136.192 49.0373 136.822 48.292C137.51 47.4893 138.026 46.916 138.37 46.572C138.714 46.228 138.972 46.056 139.144 46.056C139.431 46.056 139.431 46.486 139.144 47.346C138.915 48.206 138.657 48.808 138.37 49.152ZM130.028 32.64C130.028 32.4107 130 32.1527 129.942 31.866C129.885 31.5793 129.713 31.4073 129.426 31.35H129.34C129.054 31.35 128.824 31.4933 128.652 31.78C128.48 32.0093 128.337 32.2387 128.222 32.468C128.05 32.9267 127.878 33.328 127.706 33.672C127.592 33.9587 127.649 34.2453 127.878 34.532C128.108 34.6467 128.509 34.4173 129.082 33.844C129.713 33.2133 130.028 32.812 130.028 32.64ZM130.2 46.4C130.2 45.54 130.028 44.6227 129.684 43.648C129.398 42.616 129.054 41.6987 128.652 40.896C128.308 40.0933 128.05 39.5773 127.878 39.348C127.878 39.348 127.534 39.778 126.846 40.638C126.158 41.4407 125.413 42.3293 124.61 43.304C124.094 43.8773 123.578 44.6227 123.062 45.54C122.546 46.4573 122.231 47.26 122.116 47.948C122.116 47.948 122.374 48.292 122.89 48.98C123.406 49.6107 124.037 50.2127 124.782 50.786C125.585 51.3593 126.359 51.56 127.104 51.388C128.251 51.1013 129.054 50.442 129.512 49.41C129.971 48.3207 130.2 47.3173 130.2 46.4ZM127.276 53.108H126.502C126.273 53.108 126.015 53.108 125.728 53.108C125.442 53.0507 125.155 52.9933 124.868 52.936C124.582 52.8213 124.152 52.592 123.578 52.248C123.005 51.904 122.718 51.732 122.718 51.732C122.718 51.732 122.69 51.7893 122.632 51.904C122.632 52.0187 122.632 52.162 122.632 52.334C122.632 52.5633 122.661 52.8213 122.718 53.108C122.833 53.3947 123.034 53.6813 123.32 53.968C123.779 54.312 124.18 54.5987 124.524 54.828C124.868 55 125.327 55 125.9 54.828C126.302 54.7133 126.617 54.398 126.846 53.882C127.133 53.366 127.276 53.108 127.276 53.108ZM182.153 12.602C181.637 14.0353 180.891 15.268 179.917 16.3C178.942 17.2747 177.48 17.762 175.531 17.762C174.613 17.762 173.782 17.59 173.037 17.246C172.291 16.8447 171.689 16.1853 171.231 15.268C170.887 14.6373 170.715 13.9493 170.715 13.204C170.715 12.2867 170.944 11.4553 171.403 10.71C171.919 9.96467 172.635 9.56333 173.553 9.506C173.667 9.506 173.782 9.506 173.897 9.506C174.069 9.44866 174.183 9.42 174.241 9.42C175.158 9.42 175.875 9.764 176.391 10.452C176.563 10.6813 176.649 10.9107 176.649 11.14C176.649 11.5413 176.419 11.9713 175.961 12.43C175.559 12.8313 175.158 13.2613 174.757 13.72C174.413 14.1787 174.327 14.6947 174.499 15.268C174.843 16.3 175.473 16.816 176.391 16.816C177.251 16.816 178.168 16.3573 179.143 15.44C180.175 14.4653 180.977 13.118 181.551 11.398C181.723 11.054 181.809 10.6527 181.809 10.194C181.809 9.334 181.465 8.44533 180.777 7.528C180.089 6.61066 179.2 5.95133 178.111 5.55C177.652 5.378 177.136 5.23466 176.563 5.12C176.047 5.00533 175.531 4.948 175.015 4.948C172.951 4.948 170.915 5.55 168.909 6.754C166.902 7.958 165.526 9.62066 164.781 11.742C164.494 12.4873 164.293 13.204 164.179 13.892C164.064 14.58 164.007 15.2107 164.007 15.784C164.007 17.4467 164.437 18.8513 165.297 19.998C166.157 21.1447 167.246 22.1767 168.565 23.094C169.941 24.0113 171.374 24.9573 172.865 25.932C174.355 26.8493 175.76 27.91 177.079 29.114C178.455 30.318 179.573 31.78 180.433 33.5C181.293 35.22 181.723 37.3413 181.723 39.864C181.723 41.2973 181.551 42.9027 181.207 44.68C180.863 46.4573 180.289 48.4353 179.487 50.614C178.512 53.2513 177.05 55.6307 175.101 57.752C173.209 59.9307 171.001 61.6507 168.479 62.912C166.013 64.1733 163.405 64.804 160.653 64.804C158.761 64.804 156.869 64.46 154.977 63.772C152.167 62.74 150.275 61.4213 149.301 59.816C148.269 58.268 147.753 56.6913 147.753 55.086C147.753 53.9967 147.896 52.9647 148.183 51.99C148.469 51.0153 148.727 50.1553 148.957 49.41C149.358 48.2633 150.161 47.088 151.365 45.884C152.626 44.68 154.031 43.6767 155.579 42.874C157.127 42.014 158.56 41.584 159.879 41.584C160.452 41.584 160.997 41.67 161.513 41.842C162.602 42.1287 163.147 43.2753 163.147 45.282C163.147 45.8553 163.089 46.4287 162.975 47.002C162.86 47.5753 162.688 48.1773 162.459 48.808C162.057 49.8973 161.455 50.786 160.653 51.474C159.907 52.162 158.904 52.506 157.643 52.506C157.012 52.506 156.41 52.4773 155.837 52.42C155.321 52.3053 154.919 52.0187 154.633 51.56C154.575 51.4453 154.518 51.3307 154.461 51.216C154.461 51.1013 154.461 50.9867 154.461 50.872C154.461 49.9547 154.919 49.1807 155.837 48.55C156.295 48.206 156.725 48.206 157.127 48.55C157.528 48.894 157.929 49.2667 158.331 49.668C158.789 50.012 159.277 50.1267 159.793 50.012C160.71 49.7827 161.312 49.2667 161.599 48.464C161.885 47.6613 162.029 46.7727 162.029 45.798C162.029 45.5113 162.029 45.2247 162.029 44.938C162.029 44.6513 162 44.3647 161.943 44.078C161.885 43.1033 161.398 42.616 160.481 42.616C159.793 42.616 158.933 42.9027 157.901 43.476C156.926 44.0493 155.923 44.766 154.891 45.626C153.916 46.4287 153.056 47.26 152.311 48.12C151.565 48.9227 151.107 49.5533 150.935 50.012C150.419 51.4453 150.161 52.7927 150.161 54.054C150.161 57.0927 151.766 59.214 154.977 60.418C155.321 60.5327 155.722 60.59 156.181 60.59C157.327 60.59 158.875 60.332 160.825 59.816C162.831 59.3 164.953 58.4687 167.189 57.322C169.425 56.1753 171.517 54.6273 173.467 52.678C175.416 50.7287 176.907 48.3207 177.939 45.454C178.455 44.078 178.827 42.8167 179.057 41.67C179.286 40.5233 179.401 39.4627 179.401 38.488C179.401 36.3093 178.913 34.5033 177.939 33.07C177.021 31.5793 175.789 30.3467 174.241 29.372C172.75 28.3973 171.173 27.5087 169.511 26.706C167.848 25.9033 166.243 25.072 164.695 24.212C163.204 23.2947 161.971 22.234 160.997 21.03C160.079 19.7687 159.621 18.192 159.621 16.3C159.621 15.612 159.678 14.8667 159.793 14.064C159.965 13.204 160.223 12.3153 160.567 11.398C161.713 8.18733 163.376 5.894 165.555 4.518C167.791 3.142 170.141 2.454 172.607 2.454C173.639 2.454 174.671 2.56867 175.703 2.798C176.735 2.97 177.738 3.228 178.713 3.572C180.375 4.14533 181.493 4.862 182.067 5.722C182.697 6.582 183.013 7.528 183.013 8.56C183.013 9.19066 182.927 9.85 182.755 10.538C182.64 11.1687 182.439 11.8567 182.153 12.602ZM208.918 21.03C208.918 21.03 208.918 21.2307 208.918 21.632C208.975 22.0333 208.861 22.5207 208.574 23.094C208.287 23.6673 207.657 24.2407 206.682 24.814C206.338 25.0433 205.707 25.2153 204.79 25.33C203.873 25.4447 202.841 25.5307 201.694 25.588C201.063 27.2507 200.375 28.942 199.63 30.662C198.885 32.3247 198.111 33.9013 197.308 35.392C196.104 37.6853 195.072 39.3767 194.212 40.466C193.409 41.5553 192.779 42.3867 192.32 42.96C191.861 43.476 191.546 44.1067 191.374 44.852C191.317 45.196 191.259 45.5113 191.202 45.798C191.202 46.0847 191.202 46.3713 191.202 46.658C191.202 48.7793 191.804 50.3273 193.008 51.302C194.269 52.2767 195.473 52.764 196.62 52.764C197.939 52.764 199.257 52.3053 200.576 51.388C201.895 50.4133 202.984 49.5247 203.844 48.722C204.532 48.1487 205.048 47.862 205.392 47.862C205.621 47.862 205.736 47.9767 205.736 48.206C205.736 48.6073 205.421 49.238 204.79 50.098C204.446 50.5567 203.873 51.1873 203.07 51.99C202.267 52.7927 201.264 53.538 200.06 54.226C198.856 54.8567 197.509 55.172 196.018 55.172C193.037 55.172 191.03 54.484 189.998 53.108C189.023 51.732 188.536 49.4387 188.536 46.228C188.536 43.7053 188.794 40.6093 189.31 36.94C189.826 33.2133 190.629 29.286 191.718 25.158C191.431 25.158 191.145 25.158 190.858 25.158C190.571 25.1007 190.313 25.072 190.084 25.072C189.339 25.072 188.765 25.1867 188.364 25.416C188.02 25.588 187.733 25.674 187.504 25.674C186.931 25.674 186.644 25.244 186.644 24.384C186.644 23.4093 186.902 22.664 187.418 22.148C187.819 21.7467 188.507 21.546 189.482 21.546C190.227 21.546 191.231 21.6893 192.492 21.976C192.607 21.632 192.721 21.3167 192.836 21.03C192.951 20.7433 193.037 20.4567 193.094 20.17C193.209 19.5967 193.323 19.138 193.438 18.794C193.553 18.45 193.696 18.02 193.868 17.504C194.843 14.58 195.903 11.7707 197.05 9.076C198.197 6.38133 199.859 3.97333 202.038 1.852C202.439 1.22133 202.984 0.905999 203.672 0.905999C204.188 0.905999 204.647 1.13533 205.048 1.594C205.449 1.99533 205.621 2.48266 205.564 3.056C205.564 3.056 205.535 3.77266 205.478 5.206C205.421 6.63933 205.306 8.388 205.134 10.452C204.962 12.4587 204.704 14.3793 204.36 16.214C204.188 17.3033 203.93 18.4787 203.586 19.74C203.299 20.944 202.927 22.1767 202.468 23.438C202.812 23.4953 203.127 23.5527 203.414 23.61C203.758 23.61 204.073 23.61 204.36 23.61C205.22 23.61 205.879 23.4953 206.338 23.266C206.854 22.9793 207.141 22.6927 207.198 22.406C207.313 22.1193 207.37 21.976 207.37 21.976C207.37 20.8293 207.657 20.256 208.23 20.256C208.517 20.256 208.746 20.514 208.918 21.03ZM202.812 6.668C202.468 6.61066 201.923 7.27 201.178 8.646C200.433 10.022 199.63 11.828 198.77 14.064C197.91 16.3 197.079 18.6793 196.276 21.202C196.219 21.4313 196.161 21.6607 196.104 21.89C196.047 22.062 195.989 22.2627 195.932 22.492C196.333 22.6067 196.735 22.6927 197.136 22.75C197.537 22.8073 197.967 22.8933 198.426 23.008C198.655 23.0653 198.913 23.094 199.2 23.094C199.487 23.094 199.745 23.1513 199.974 23.266C200.203 22.6353 200.404 22.0907 200.576 21.632C200.748 21.116 200.92 20.6573 201.092 20.256C201.723 18.1347 202.239 15.956 202.64 13.72C203.041 11.484 203.242 9.73533 203.242 8.474C203.242 7.442 203.099 6.84 202.812 6.668ZM199.028 25.588H197.48C197.079 25.588 196.677 25.588 196.276 25.588C195.932 25.588 195.588 25.5593 195.244 25.502C194.728 27.6807 194.212 30.0313 193.696 32.554C193.237 35.0193 192.865 37.2267 192.578 39.176C193.266 38.3733 193.983 37.2267 194.728 35.736C195.473 34.2453 196.219 32.6113 196.964 30.834C197.709 28.9993 198.397 27.2507 199.028 25.588ZM223.181 38.832C223.181 40.036 222.923 41.6127 222.407 43.562C221.891 45.5113 221.203 47.346 220.343 49.066C219.54 50.8433 218.623 52.162 217.591 53.022C216.616 53.8247 215.67 54.398 214.753 54.742C213.835 55.0287 213.09 55.3153 212.517 55.602C212.287 55.6593 212.029 55.7167 211.743 55.774C211.513 55.8887 211.255 55.946 210.969 55.946C209.822 55.946 208.933 55.6307 208.303 55C208.073 54.7707 207.701 54.5413 207.185 54.312C206.726 54.0827 206.296 53.6813 205.895 53.108C205.493 52.5347 205.293 51.5887 205.293 50.27C205.293 48.894 205.465 47.5753 205.809 46.314C204.777 45.11 204.261 43.7913 204.261 42.358C204.261 41.498 204.461 40.6667 204.863 39.864C205.952 37.8 207.328 36.1947 208.991 35.048C210.653 33.9013 212.23 33.0987 213.721 32.64C215.269 32.1813 216.329 31.952 216.903 31.952C219.024 31.952 220.601 32.64 221.633 34.016C222.665 35.392 223.181 36.9973 223.181 38.832ZM219.655 39.262C219.655 37.9433 219.196 36.854 218.279 35.994C217.419 35.134 216.329 34.704 215.011 34.704C213.921 34.704 212.803 35.048 211.657 35.736C210.567 36.3667 209.621 37.1693 208.819 38.144C208.016 39.1187 207.5 40.0647 207.271 40.982C207.213 41.326 207.156 41.6413 207.099 41.928C207.099 42.2147 207.099 42.5013 207.099 42.788C207.729 41.412 208.389 40.2653 209.077 39.348C209.822 38.4307 210.367 37.8573 210.711 37.628C210.997 37.3987 211.37 37.284 211.829 37.284C212.459 37.284 212.775 37.456 212.775 37.8C212.775 38.0293 212.459 38.4593 211.829 39.09C211.255 39.6633 210.596 40.4373 209.851 41.412C209.105 42.3293 208.475 43.476 207.959 44.852C208.417 45.4253 209.019 45.8553 209.765 46.142C210.567 46.3713 211.341 46.486 212.087 46.486C212.889 46.486 213.635 46.3427 214.323 46.056C215.068 45.712 215.555 45.2533 215.785 44.68C215.842 44.508 215.871 44.3647 215.871 44.25C215.928 44.078 215.957 43.9347 215.957 43.82C215.957 43.2467 215.699 42.9027 215.183 42.788C214.724 42.616 214.265 42.5587 213.807 42.616H213.635C213.004 42.616 212.689 42.4727 212.689 42.186C212.689 42.014 212.746 41.842 212.861 41.67C213.033 41.498 213.176 41.3547 213.291 41.24C213.635 40.896 214.007 40.724 214.409 40.724C214.982 40.724 215.613 41.0967 216.301 41.842C216.931 42.702 217.247 43.5333 217.247 44.336C217.247 45.368 216.731 46.1707 215.699 46.744C214.724 47.3173 213.635 47.7187 212.431 47.948C211.227 48.1773 210.309 48.292 209.679 48.292C208.761 48.292 208.016 48.0913 207.443 47.69C207.385 47.8047 207.357 48.0627 207.357 48.464C207.357 50.0693 207.787 51.1587 208.647 51.732C209.507 52.248 210.223 52.6493 210.797 52.936C211.141 53.0507 211.427 53.108 211.657 53.108C212.459 53.108 213.291 52.764 214.151 52.076C215.068 51.388 215.871 50.442 216.559 49.238C217.075 48.3207 217.562 47.2313 218.021 45.97C218.479 44.7087 218.852 43.476 219.139 42.272C219.483 41.0107 219.655 40.0073 219.655 39.262ZM244.439 50.356C244.668 50.1267 244.983 50.012 245.385 50.012C245.786 50.012 245.987 50.184 245.987 50.528C245.987 50.9293 245.528 51.56 244.611 52.42C243.693 53.28 242.69 53.968 241.601 54.484C240.511 55 239.479 55.3727 238.505 55.602C238.046 55.6593 237.415 55.4873 236.613 55.086C235.867 54.742 235.409 54.3693 235.237 53.968C235.007 53.452 234.835 52.8787 234.721 52.248C234.606 51.56 234.549 50.8433 234.549 50.098C234.549 48.3207 234.749 46.486 235.151 44.594C235.552 42.702 235.925 41.068 236.269 39.692C235.581 39.9213 234.807 40.036 233.947 40.036C233.144 40.036 232.427 40.0933 231.797 40.208C231.395 40.7813 231.051 41.4407 230.765 42.186C230.478 42.874 230.077 43.648 229.561 44.508C228.643 45.9987 227.611 47.4893 226.465 48.98C225.375 50.4133 224.257 51.5887 223.111 52.506C221.964 53.4233 220.846 53.882 219.757 53.882C219.011 53.882 218.639 53.6813 218.639 53.28C218.639 52.8787 219.126 52.506 220.101 52.162C221.477 51.646 222.881 50.5567 224.315 48.894C225.748 47.2313 227.038 45.5113 228.185 43.734C228.758 42.874 229.131 42.1 229.303 41.412C229.475 40.6667 229.561 40.0933 229.561 39.692C229.561 39.692 229.303 39.4053 228.787 38.832C228.328 38.2013 228.099 37.5993 228.099 37.026C228.099 35.7647 228.5 34.618 229.303 33.586C230.163 32.554 231.051 32.1813 231.969 32.468C232.599 32.64 233.001 32.9267 233.173 33.328C233.402 33.7293 233.517 34.1593 233.517 34.618C233.517 35.134 233.431 35.6787 233.259 36.252C233.087 36.768 232.915 37.2267 232.743 37.628C232.915 37.8573 233.287 37.972 233.861 37.972C234.721 37.972 235.667 37.8 236.699 37.456C237.444 36.3667 238.161 35.5067 238.849 34.876C239.537 34.2453 240.167 33.9873 240.741 34.102C241.142 34.1593 241.515 34.3027 241.859 34.532C242.203 34.7613 242.375 35.1913 242.375 35.822C242.375 36.338 242.117 37.112 241.601 38.144C240.741 39.692 239.938 41.3833 239.193 43.218C238.447 44.9953 237.874 46.6293 237.473 48.12C237.071 49.5533 236.899 50.5567 236.957 51.13C237.071 51.8753 237.272 52.3627 237.559 52.592C237.903 52.8213 238.275 52.936 238.677 52.936C238.963 52.936 239.25 52.9073 239.537 52.85C239.881 52.7353 240.196 52.6493 240.483 52.592C241.343 52.3053 242.059 51.99 242.633 51.646C243.206 51.302 243.808 50.872 244.439 50.356ZM231.625 35.822C231.625 35.306 231.453 34.9333 231.109 34.704C231.051 34.6467 230.965 34.618 230.851 34.618C230.564 34.618 230.306 34.8187 230.077 35.22C229.847 35.564 229.733 35.908 229.733 36.252C229.733 36.5387 229.761 36.8827 229.819 37.284C229.933 37.628 230.134 37.714 230.421 37.542C230.707 37.37 230.965 37.1407 231.195 36.854C231.481 36.5673 231.625 36.2233 231.625 35.822ZM266.625 44.508C265.879 45.7693 264.933 47.1453 263.787 48.636C262.64 50.0693 261.436 51.302 260.175 52.334C258.971 53.366 257.824 53.882 256.735 53.882C254.957 53.882 253.553 53.796 252.521 53.624C251.546 53.3947 250.743 53.0793 250.113 52.678C249.023 51.9327 248.135 50.958 247.447 49.754C246.759 48.55 246.357 47.3173 246.243 46.056C246.185 45.712 246.157 45.368 246.157 45.024C246.157 44.68 246.157 44.3647 246.157 44.078C246.157 40.6953 246.816 37.714 248.135 35.134C249.453 32.554 251.317 31.006 253.725 30.49C254.47 30.3753 255.043 30.6907 255.445 31.436C255.846 32.124 256.047 33.07 256.047 34.274C256.047 36.1087 255.559 38.0867 254.585 40.208C254.183 41.068 253.753 41.8993 253.295 42.702C252.893 43.4473 252.549 44.0493 252.263 44.508C251.517 45.5973 250.944 46.3427 250.543 46.744C250.199 47.088 250.027 47.432 250.027 47.776C250.027 48.6933 250.6 49.582 251.747 50.442C252.893 51.302 254.671 51.732 257.079 51.732C257.996 51.732 258.942 51.3307 259.917 50.528C260.891 49.7253 261.837 48.722 262.755 47.518C263.729 46.314 264.589 45.11 265.335 43.906C265.679 43.3327 265.994 43.046 266.281 43.046C266.625 43.046 266.797 43.304 266.797 43.82C266.797 44.0493 266.739 44.2787 266.625 44.508ZM253.725 33.672C253.495 33.328 253.008 33.414 252.263 33.93C251.575 34.3887 250.944 35.478 250.371 37.198C249.969 38.4593 249.769 39.9213 249.769 41.584C249.769 42.0427 249.769 42.5013 249.769 42.96C249.826 43.4187 249.883 43.8773 249.941 44.336C250.915 42.6733 251.603 41.4407 252.005 40.638C252.463 39.778 252.807 38.8893 253.037 37.972C253.151 37.5133 253.323 36.94 253.553 36.252C253.839 35.564 253.983 34.962 253.983 34.446C253.983 34.102 253.897 33.844 253.725 33.672Z" fill="#2D86D9"/>
<path d="M89.5098 76.4473L90.4004 76.4414C90.4004 76.7422 90.3535 77.0254 90.2598 77.291C90.1699 77.5566 90.0391 77.791 89.8672 77.9941C89.6992 78.1934 89.498 78.3516 89.2637 78.4688C89.0332 78.582 88.7793 78.6387 88.502 78.6387C88.1621 78.6387 87.8613 78.5703 87.5996 78.4336C87.3418 78.2969 87.0605 78.0957 86.7559 77.8301C86.5566 77.6465 86.373 77.5039 86.2051 77.4023C86.0371 77.3008 85.8555 77.25 85.6602 77.25C85.4609 77.25 85.291 77.2988 85.1504 77.3965C85.0098 77.4902 84.9004 77.625 84.8223 77.8008C84.748 77.9766 84.7109 78.1875 84.7109 78.4336L83.7676 78.4453C83.7676 78.1406 83.8125 77.8574 83.9023 77.5957C83.9961 77.334 84.127 77.1055 84.2949 76.9102C84.4629 76.7148 84.6621 76.5645 84.8926 76.459C85.127 76.3496 85.3828 76.2949 85.6602 76.2949C86.0039 76.2949 86.3086 76.3672 86.5742 76.5117C86.8438 76.6562 87.1211 76.8555 87.4062 77.1094C87.6211 77.3047 87.8086 77.4512 87.9688 77.5488C88.1328 77.6426 88.3105 77.6895 88.502 77.6895C88.7051 77.6895 88.8809 77.6367 89.0293 77.5312C89.1816 77.4258 89.2988 77.2793 89.3809 77.0918C89.4668 76.9043 89.5098 76.6895 89.5098 76.4473ZM93.6113 81H92.5273V73.9922C92.5273 73.5352 92.6094 73.1504 92.7734 72.8379C92.9414 72.5215 93.1816 72.2832 93.4941 72.123C93.8066 71.959 94.1777 71.877 94.6074 71.877C94.7324 71.877 94.8574 71.8848 94.9824 71.9004C95.1113 71.916 95.2363 71.9395 95.3574 71.9707L95.2988 72.8555C95.2168 72.8359 95.123 72.8223 95.0176 72.8145C94.916 72.8066 94.8145 72.8027 94.7129 72.8027C94.4824 72.8027 94.2832 72.8496 94.1152 72.9434C93.9512 73.0332 93.8262 73.166 93.7402 73.3418C93.6543 73.5176 93.6113 73.7344 93.6113 73.9922V81ZM94.959 74.6602V75.4922H91.5254V74.6602H94.959ZM100.045 79.5352V74.6602H101.135V81H100.098L100.045 79.5352ZM100.25 78.1992L100.701 78.1875C100.701 78.6094 100.656 79 100.566 79.3594C100.48 79.7148 100.34 80.0234 100.145 80.2852C99.9492 80.5469 99.6934 80.752 99.377 80.9004C99.0605 81.0449 98.6758 81.1172 98.2227 81.1172C97.9141 81.1172 97.6309 81.0723 97.373 80.9824C97.1191 80.8926 96.9004 80.7539 96.7168 80.5664C96.5332 80.3789 96.3906 80.1348 96.2891 79.834C96.1914 79.5332 96.1426 79.1719 96.1426 78.75V74.6602H97.2266V78.7617C97.2266 79.0469 97.2578 79.2832 97.3203 79.4707C97.3867 79.6543 97.4746 79.8008 97.584 79.9102C97.6973 80.0156 97.8223 80.0898 97.959 80.1328C98.0996 80.1758 98.2441 80.1973 98.3926 80.1973C98.8535 80.1973 99.2188 80.1094 99.4883 79.9336C99.7578 79.7539 99.9512 79.5137 100.068 79.2129C100.189 78.9082 100.25 78.5703 100.25 78.1992ZM103.871 76.0137V81H102.787V74.6602H103.812L103.871 76.0137ZM103.613 77.5898L103.162 77.5723C103.166 77.1387 103.23 76.7383 103.355 76.3711C103.48 76 103.656 75.6777 103.883 75.4043C104.109 75.1309 104.379 74.9199 104.691 74.7715C105.008 74.6191 105.357 74.543 105.74 74.543C106.053 74.543 106.334 74.5859 106.584 74.6719C106.834 74.7539 107.047 74.8867 107.223 75.0703C107.402 75.2539 107.539 75.4922 107.633 75.7852C107.727 76.0742 107.773 76.4277 107.773 76.8457V81H106.684V76.834C106.684 76.502 106.635 76.2363 106.537 76.0371C106.439 75.834 106.297 75.6875 106.109 75.5977C105.922 75.5039 105.691 75.457 105.418 75.457C105.148 75.457 104.902 75.5137 104.68 75.627C104.461 75.7402 104.271 75.8965 104.111 76.0957C103.955 76.2949 103.832 76.5234 103.742 76.7812C103.656 77.0352 103.613 77.3047 103.613 77.5898ZM114.014 81H112.93V73.9922C112.93 73.5352 113.012 73.1504 113.176 72.8379C113.344 72.5215 113.584 72.2832 113.896 72.123C114.209 71.959 114.58 71.877 115.01 71.877C115.135 71.877 115.26 71.8848 115.385 71.9004C115.514 71.916 115.639 71.9395 115.76 71.9707L115.701 72.8555C115.619 72.8359 115.525 72.8223 115.42 72.8145C115.318 72.8066 115.217 72.8027 115.115 72.8027C114.885 72.8027 114.686 72.8496 114.518 72.9434C114.354 73.0332 114.229 73.166 114.143 73.3418C114.057 73.5176 114.014 73.7344 114.014 73.9922V81ZM115.361 74.6602V75.4922H111.928V74.6602H115.361ZM117.652 75.6562V81H116.568V74.6602H117.623L117.652 75.6562ZM119.633 74.625L119.627 75.6328C119.537 75.6133 119.451 75.6016 119.369 75.5977C119.291 75.5898 119.201 75.5859 119.1 75.5859C118.85 75.5859 118.629 75.625 118.438 75.7031C118.246 75.7812 118.084 75.8906 117.951 76.0312C117.818 76.1719 117.713 76.3398 117.635 76.5352C117.561 76.7266 117.512 76.9375 117.488 77.168L117.184 77.3438C117.184 76.9609 117.221 76.6016 117.295 76.2656C117.373 75.9297 117.492 75.6328 117.652 75.375C117.812 75.1133 118.016 74.9102 118.262 74.7656C118.512 74.6172 118.809 74.543 119.152 74.543C119.23 74.543 119.32 74.5527 119.422 74.5723C119.523 74.5879 119.594 74.6055 119.633 74.625ZM120.23 77.9004V77.7656C120.23 77.3086 120.297 76.8848 120.43 76.4941C120.562 76.0996 120.754 75.7578 121.004 75.4688C121.254 75.1758 121.557 74.9492 121.912 74.7891C122.268 74.625 122.666 74.543 123.107 74.543C123.553 74.543 123.953 74.625 124.309 74.7891C124.668 74.9492 124.973 75.1758 125.223 75.4688C125.477 75.7578 125.67 76.0996 125.803 76.4941C125.936 76.8848 126.002 77.3086 126.002 77.7656V77.9004C126.002 78.3574 125.936 78.7812 125.803 79.1719C125.67 79.5625 125.477 79.9043 125.223 80.1973C124.973 80.4863 124.67 80.7129 124.314 80.877C123.963 81.0371 123.564 81.1172 123.119 81.1172C122.674 81.1172 122.273 81.0371 121.918 80.877C121.562 80.7129 121.258 80.4863 121.004 80.1973C120.754 79.9043 120.562 79.5625 120.43 79.1719C120.297 78.7812 120.23 78.3574 120.23 77.9004ZM121.314 77.7656V77.9004C121.314 78.2168 121.352 78.5156 121.426 78.7969C121.5 79.0742 121.611 79.3203 121.76 79.5352C121.912 79.75 122.102 79.9199 122.328 80.0449C122.555 80.166 122.818 80.2266 123.119 80.2266C123.416 80.2266 123.676 80.166 123.898 80.0449C124.125 79.9199 124.312 79.75 124.461 79.5352C124.609 79.3203 124.721 79.0742 124.795 78.7969C124.873 78.5156 124.912 78.2168 124.912 77.9004V77.7656C124.912 77.4531 124.873 77.1582 124.795 76.8809C124.721 76.5996 124.607 76.3516 124.455 76.1367C124.307 75.918 124.119 75.7461 123.893 75.6211C123.67 75.4961 123.408 75.4336 123.107 75.4336C122.811 75.4336 122.549 75.4961 122.322 75.6211C122.1 75.7461 121.912 75.918 121.76 76.1367C121.611 76.3516 121.5 76.5996 121.426 76.8809C121.352 77.1582 121.314 77.4531 121.314 77.7656ZM128.439 75.9199V81H127.35V74.6602H128.381L128.439 75.9199ZM128.217 77.5898L127.713 77.5723C127.717 77.1387 127.773 76.7383 127.883 76.3711C127.992 76 128.154 75.6777 128.369 75.4043C128.584 75.1309 128.852 74.9199 129.172 74.7715C129.492 74.6191 129.863 74.543 130.285 74.543C130.582 74.543 130.855 74.5859 131.105 74.6719C131.355 74.7539 131.572 74.8848 131.756 75.0645C131.939 75.2441 132.082 75.4746 132.184 75.7559C132.285 76.0371 132.336 76.377 132.336 76.7754V81H131.252V76.8281C131.252 76.4961 131.195 76.2305 131.082 76.0312C130.973 75.832 130.816 75.6875 130.613 75.5977C130.41 75.5039 130.172 75.457 129.898 75.457C129.578 75.457 129.311 75.5137 129.096 75.627C128.881 75.7402 128.709 75.8965 128.58 76.0957C128.451 76.2949 128.357 76.5234 128.299 76.7812C128.244 77.0352 128.217 77.3047 128.217 77.5898ZM132.324 76.9922L131.598 77.2148C131.602 76.8672 131.658 76.5332 131.768 76.2129C131.881 75.8926 132.043 75.6074 132.254 75.3574C132.469 75.1074 132.732 74.9102 133.045 74.7656C133.357 74.6172 133.715 74.543 134.117 74.543C134.457 74.543 134.758 74.5879 135.02 74.6777C135.285 74.7676 135.508 74.9062 135.688 75.0938C135.871 75.2773 136.01 75.5137 136.104 75.8027C136.197 76.0918 136.244 76.4355 136.244 76.834V81H135.154V76.8223C135.154 76.4668 135.098 76.1914 134.984 75.9961C134.875 75.7969 134.719 75.6582 134.516 75.5801C134.316 75.498 134.078 75.457 133.801 75.457C133.562 75.457 133.352 75.498 133.168 75.5801C132.984 75.6621 132.83 75.7754 132.705 75.9199C132.58 76.0605 132.484 76.2227 132.418 76.4062C132.355 76.5898 132.324 76.7852 132.324 76.9922ZM144.605 78.5098V72.4688H145.73V78.5098C145.73 79.0723 145.615 79.5469 145.385 79.9336C145.154 80.3203 144.836 80.6152 144.43 80.8184C144.027 81.0176 143.564 81.1172 143.041 81.1172C142.518 81.1172 142.053 81.0273 141.646 80.8477C141.24 80.668 140.922 80.3945 140.691 80.0273C140.461 79.6602 140.346 79.1973 140.346 78.6387H141.477C141.477 78.998 141.543 79.293 141.676 79.5234C141.809 79.7539 141.992 79.9238 142.227 80.0332C142.465 80.1426 142.736 80.1973 143.041 80.1973C143.338 80.1973 143.604 80.1348 143.838 80.0098C144.076 79.8809 144.264 79.6914 144.4 79.4414C144.537 79.1875 144.605 78.877 144.605 78.5098ZM151.221 79.916V76.6523C151.221 76.4023 151.17 76.1855 151.068 76.002C150.971 75.8145 150.822 75.6699 150.623 75.5684C150.424 75.4668 150.178 75.416 149.885 75.416C149.611 75.416 149.371 75.4629 149.164 75.5566C148.961 75.6504 148.801 75.7734 148.684 75.9258C148.57 76.0781 148.514 76.2422 148.514 76.418H147.43C147.43 76.1914 147.488 75.9668 147.605 75.7441C147.723 75.5215 147.891 75.3203 148.109 75.1406C148.332 74.957 148.598 74.8125 148.906 74.707C149.219 74.5977 149.566 74.543 149.949 74.543C150.41 74.543 150.816 74.6211 151.168 74.7773C151.523 74.9336 151.801 75.1699 152 75.4863C152.203 75.7988 152.305 76.1914 152.305 76.6641V79.6172C152.305 79.8281 152.322 80.0527 152.357 80.291C152.396 80.5293 152.453 80.7344 152.527 80.9062V81H151.396C151.342 80.875 151.299 80.709 151.268 80.502C151.236 80.291 151.221 80.0957 151.221 79.916ZM151.408 77.1562L151.42 77.918H150.324C150.016 77.918 149.74 77.9434 149.498 77.9941C149.256 78.041 149.053 78.1133 148.889 78.2109C148.725 78.3086 148.6 78.4316 148.514 78.5801C148.428 78.7246 148.385 78.8945 148.385 79.0898C148.385 79.2891 148.43 79.4707 148.52 79.6348C148.609 79.7988 148.744 79.9297 148.924 80.0273C149.107 80.1211 149.332 80.168 149.598 80.168C149.93 80.168 150.223 80.0977 150.477 79.957C150.73 79.8164 150.932 79.6445 151.08 79.4414C151.232 79.2383 151.314 79.041 151.326 78.8496L151.789 79.3711C151.762 79.5352 151.688 79.7168 151.566 79.916C151.445 80.1152 151.283 80.3066 151.08 80.4902C150.881 80.6699 150.643 80.8203 150.365 80.9414C150.092 81.0586 149.783 81.1172 149.439 81.1172C149.01 81.1172 148.633 81.0332 148.309 80.8652C147.988 80.6973 147.738 80.4727 147.559 80.1914C147.383 79.9062 147.295 79.5879 147.295 79.2363C147.295 78.8965 147.361 78.5977 147.494 78.3398C147.627 78.0781 147.818 77.8613 148.068 77.6895C148.318 77.5137 148.619 77.3809 148.971 77.291C149.322 77.2012 149.715 77.1562 150.148 77.1562H151.408ZM155.094 75.8789V83.4375H154.004V74.6602H155L155.094 75.8789ZM159.365 77.7773V77.9004C159.365 78.3613 159.311 78.7891 159.201 79.1836C159.092 79.5742 158.932 79.9141 158.721 80.2031C158.514 80.4922 158.258 80.7168 157.953 80.877C157.648 81.0371 157.299 81.1172 156.904 81.1172C156.502 81.1172 156.146 81.0508 155.838 80.918C155.529 80.7852 155.268 80.5918 155.053 80.3379C154.838 80.084 154.666 79.7793 154.537 79.4238C154.412 79.0684 154.326 78.668 154.279 78.2227V77.5664C154.326 77.0977 154.414 76.6777 154.543 76.3066C154.672 75.9355 154.842 75.6191 155.053 75.3574C155.268 75.0918 155.527 74.8906 155.832 74.7539C156.137 74.6133 156.488 74.543 156.887 74.543C157.285 74.543 157.639 74.6211 157.947 74.7773C158.256 74.9297 158.516 75.1484 158.727 75.4336C158.938 75.7188 159.096 76.0605 159.201 76.459C159.311 76.8535 159.365 77.293 159.365 77.7773ZM158.275 77.9004V77.7773C158.275 77.4609 158.242 77.1641 158.176 76.8867C158.109 76.6055 158.006 76.3594 157.865 76.1484C157.729 75.9336 157.553 75.7656 157.338 75.6445C157.123 75.5195 156.867 75.457 156.57 75.457C156.297 75.457 156.059 75.5039 155.855 75.5977C155.656 75.6914 155.486 75.8184 155.346 75.9785C155.205 76.1348 155.09 76.3145 155 76.5176C154.914 76.7168 154.85 76.9238 154.807 77.1387V78.6562C154.885 78.9297 154.994 79.1875 155.135 79.4297C155.275 79.668 155.463 79.8613 155.697 80.0098C155.932 80.1543 156.227 80.2266 156.582 80.2266C156.875 80.2266 157.127 80.166 157.338 80.0449C157.553 79.9199 157.729 79.75 157.865 79.5352C158.006 79.3203 158.109 79.0742 158.176 78.7969C158.242 78.5156 158.275 78.2168 158.275 77.9004ZM164.486 79.916V76.6523C164.486 76.4023 164.436 76.1855 164.334 76.002C164.236 75.8145 164.088 75.6699 163.889 75.5684C163.689 75.4668 163.443 75.416 163.15 75.416C162.877 75.416 162.637 75.4629 162.43 75.5566C162.227 75.6504 162.066 75.7734 161.949 75.9258C161.836 76.0781 161.779 76.2422 161.779 76.418H160.695C160.695 76.1914 160.754 75.9668 160.871 75.7441C160.988 75.5215 161.156 75.3203 161.375 75.1406C161.598 74.957 161.863 74.8125 162.172 74.707C162.484 74.5977 162.832 74.543 163.215 74.543C163.676 74.543 164.082 74.6211 164.434 74.7773C164.789 74.9336 165.066 75.1699 165.266 75.4863C165.469 75.7988 165.57 76.1914 165.57 76.6641V79.6172C165.57 79.8281 165.588 80.0527 165.623 80.291C165.662 80.5293 165.719 80.7344 165.793 80.9062V81H164.662C164.607 80.875 164.564 80.709 164.533 80.502C164.502 80.291 164.486 80.0957 164.486 79.916ZM164.674 77.1562L164.686 77.918H163.59C163.281 77.918 163.006 77.9434 162.764 77.9941C162.521 78.041 162.318 78.1133 162.154 78.2109C161.99 78.3086 161.865 78.4316 161.779 78.5801C161.693 78.7246 161.65 78.8945 161.65 79.0898C161.65 79.2891 161.695 79.4707 161.785 79.6348C161.875 79.7988 162.01 79.9297 162.189 80.0273C162.373 80.1211 162.598 80.168 162.863 80.168C163.195 80.168 163.488 80.0977 163.742 79.957C163.996 79.8164 164.197 79.6445 164.346 79.4414C164.498 79.2383 164.58 79.041 164.592 78.8496L165.055 79.3711C165.027 79.5352 164.953 79.7168 164.832 79.916C164.711 80.1152 164.549 80.3066 164.346 80.4902C164.146 80.6699 163.908 80.8203 163.631 80.9414C163.357 81.0586 163.049 81.1172 162.705 81.1172C162.275 81.1172 161.898 81.0332 161.574 80.8652C161.254 80.6973 161.004 80.4727 160.824 80.1914C160.648 79.9062 160.561 79.5879 160.561 79.2363C160.561 78.8965 160.627 78.5977 160.76 78.3398C160.893 78.0781 161.084 77.8613 161.334 77.6895C161.584 77.5137 161.885 77.3809 162.236 77.291C162.588 77.2012 162.98 77.1562 163.414 77.1562H164.674ZM168.359 76.0137V81H167.275V74.6602H168.301L168.359 76.0137ZM168.102 77.5898L167.65 77.5723C167.654 77.1387 167.719 76.7383 167.844 76.3711C167.969 76 168.145 75.6777 168.371 75.4043C168.598 75.1309 168.867 74.9199 169.18 74.7715C169.496 74.6191 169.846 74.543 170.229 74.543C170.541 74.543 170.822 74.5859 171.072 74.6719C171.322 74.7539 171.535 74.8867 171.711 75.0703C171.891 75.2539 172.027 75.4922 172.121 75.7852C172.215 76.0742 172.262 76.4277 172.262 76.8457V81H171.172V76.834C171.172 76.502 171.123 76.2363 171.025 76.0371C170.928 75.834 170.785 75.6875 170.598 75.5977C170.41 75.5039 170.18 75.457 169.906 75.457C169.637 75.457 169.391 75.5137 169.168 75.627C168.949 75.7402 168.76 75.8965 168.6 76.0957C168.443 76.2949 168.32 76.5234 168.23 76.7812C168.145 77.0352 168.102 77.3047 168.102 77.5898Z" fill="#FF69B4"/>
<path d="M179.592 76.4473L180.482 76.4414C180.482 76.7422 180.436 77.0254 180.342 77.291C180.252 77.5566 180.121 77.791 179.949 77.9941C179.781 78.1934 179.58 78.3516 179.346 78.4688C179.115 78.582 178.861 78.6387 178.584 78.6387C178.244 78.6387 177.943 78.5703 177.682 78.4336C177.424 78.2969 177.143 78.0957 176.838 77.8301C176.639 77.6465 176.455 77.5039 176.287 77.4023C176.119 77.3008 175.938 77.25 175.742 77.25C175.543 77.25 175.373 77.2988 175.232 77.3965C175.092 77.4902 174.982 77.625 174.904 77.8008C174.83 77.9766 174.793 78.1875 174.793 78.4336L173.85 78.4453C173.85 78.1406 173.895 77.8574 173.984 77.5957C174.078 77.334 174.209 77.1055 174.377 76.9102C174.545 76.7148 174.744 76.5645 174.975 76.459C175.209 76.3496 175.465 76.2949 175.742 76.2949C176.086 76.2949 176.391 76.3672 176.656 76.5117C176.926 76.6562 177.203 76.8555 177.488 77.1094C177.703 77.3047 177.891 77.4512 178.051 77.5488C178.215 77.6426 178.393 77.6895 178.584 77.6895C178.787 77.6895 178.963 77.6367 179.111 77.5312C179.264 77.4258 179.381 77.2793 179.463 77.0918C179.549 76.9043 179.592 76.6895 179.592 76.4473Z" fill="#EF5DA8"/>
</svg>
